<mxfile host="app.diagrams.net" modified="2023-06-08T08:34:54.604Z" agent="Mozilla/5.0 (Windows NT 10.0; Win64; x64; rv:109.0) Gecko/20100101 Firefox/110.0" version="21.3.7" etag="AZiFfsQkcU2pSG1m7qvz" type="github">
  <diagram name="Page-1" id="rJfryqL6F2OneznrRgmk">
    <mxGraphModel>
      <root>
        <mxCell id="0" />
        <mxCell id="1" parent="0" />
      </root>
    </mxGraphModel>
  </diagram>
</mxfile>
